<?xml version="1.0" encoding="UTF-8" standalone="no"?>
<!-- Created with Inkscape (http://www.inkscape.org/) -->

<svg
   xmlns:dc="http://purl.org/dc/elements/1.1/"
   xmlns:cc="http://creativecommons.org/ns#"
   xmlns:rdf="http://www.w3.org/1999/02/22-rdf-syntax-ns#"
   xmlns:svg="http://www.w3.org/2000/svg"
   xmlns="http://www.w3.org/2000/svg"
   xmlns:sodipodi="http://sodipodi.sourceforge.net/DTD/sodipodi-0.dtd"
   xmlns:inkscape="http://www.inkscape.org/namespaces/inkscape"
   width="78"
   height="104"
   viewBox="0 0 77.999997 104"
   id="svg4160"
   version="1.1"
   inkscape:version="0.91 r13725"
   sodipodi:docname="Return.svg">
  <circle cx="39" cy="39" r="36" fill="#b2b1b6"/>
  <path d="M24.5,53.5 l34,-26 l16,16 A36,36 1 0,1 45.5,74.5 Z" fill="#939498"/>
  <g transform="translate(14,64),scale(1,-1)"><path d="M45.506,33.532c-1.741-7.42-7.161-17.758-23.554-19.942V7.047c0-1.364-0.826-2.593-2.087-3.113   c-1.261-0.521-2.712-0.229-3.675,0.737L1.305,19.63c-1.739,1.748-1.74,4.572-0.001,6.32L16.19,40.909   c0.961,0.966,2.415,1.258,3.676,0.737c1.261-0.521,2.087-1.75,2.087-3.113v-6.331c5.593,0.007,13.656,0.743,19.392,4.313   c0.953,0.594,2.168,0.555,3.08-0.101C45.335,35.762,45.763,34.624,45.506,33.532z" fill="#FFFFFF"/>
  </g><text
       style="font-size:13.9px;font-family:'Microsoft YaHei';
       text-anchor:middle;fill:black;stroke:none;stroke-width:1px;stroke-linecap:butt;stroke-linejoin:miter;stroke-opacity:1"
      x="41"
       y="96"
       >Retour</text>
  <text
     style="font-size:13.9px;font-family:'Microsoft YaHei';
       text-anchor:middle;fill:#ffffff;stroke:none;stroke-width:1px;stroke-linecap:butt;stroke-linejoin:miter;stroke-opacity:1"
    x="39"
     y="94"
       >Retour</text>
</svg>
