<?xml version="1.0" encoding="UTF-8" standalone="no"?>

<svg
   xmlns:dc="http://purl.org/dc/elements/1.1/"
   xmlns:cc="http://creativecommons.org/ns#"
   xmlns:rdf="http://www.w3.org/1999/02/22-rdf-syntax-ns#"
   xmlns:svg="http://www.w3.org/2000/svg"
   xmlns="http://www.w3.org/2000/svg"
   width="78"
   height="104"
   viewBox="0 0 78 104"
   version="1.1"
   >
  <circle cx="39" cy="39" r="36" fill="#a0a2c8"/>

  <path
       style="fill:#8487a8;"
       d="M 23.825393,17.4  c 0,0 4.297062,4.866713 4.079832,7.62116 -0.16145,2.047151 -3.752831,3.272536 -3.898507,5.320432 -0.15243,2.142847 3.189558,3.750169 3.263866,5.895614 0.08507,2.456252 -3.196392,4.445587 -3.263866,6.902183 -0.06368,2.318578 2.719888,6.614591 2.719888,6.614591
       l-1.7,1.3
       l5.1,3.8
       h-13.7
       l20,20
       A36,36  0 0,0 75,38.4
       L54,17.4
       l-1.7,1.3
       c 0,0 4.297062,4.866713 4.079832,7.62116
       -0.16145,2.047151 -3.752831,3.272536 -3,5
        
        L51.82,30.4
        L38.82,17.4
     l-1.7,1.3
         
     c 0,0 4.297062,4.866713 4.079832,7.62116
       -0.16145,2.047151 -3.752831,3.272536 -3,5
        
     Z
       "
     />
    <path
       style="fill:none;fill-rule:evenodd;stroke:#ffffff;stroke-width:2;stroke-linecap:butt;stroke-linejoin:round;stroke-miterlimit:4;stroke-dasharray:none;"
       d="m 22.825393,17.942337 c 0,0 4.297062,4.866713 4.079832,7.62116 -0.16145,2.047151 -3.752831,3.272536 -3.898507,5.320432 -0.15243,2.142847 3.189558,3.750169 3.263866,5.895614 0.08507,2.456252 -3.196392,4.445587 -3.263866,6.902183 -0.06368,2.318578 2.719888,6.614591 2.719888,6.614591"
     />
  <path
     style="fill:none;fill-rule:evenodd;stroke:#ffffff;stroke-width:2;stroke-linecap:butt;stroke-linejoin:round;stroke-miterlimit:4;stroke-dasharray:none;"
     d="m 37.825393,17.942337 c 0,0 4.297062,4.866713 4.079832,7.62116 -0.16145,2.047151 -3.752831,3.272536 -3.898507,5.320432 -0.15243,2.142847 3.189558,3.750169 3.263866,5.895614 0.08507,2.456252 -3.196392,4.445587 -3.263866,6.902183 -0.06368,2.318578 2.719888,6.614591 2.719888,6.614591"
     />
  <path
      style="fill:none;fill-rule:evenodd;stroke:#ffffff;stroke-width:2;stroke-linecap:butt;stroke-linejoin:round;stroke-miterlimit:4;stroke-dasharray:none;"
      d="m 52.825393,17.942337 c 0,0 4.297062,4.866713 4.079832,7.62116 -0.16145,2.047151 -3.752831,3.272536 -3.898507,5.320432 -0.15243,2.142847 3.189558,3.750169 3.263866,5.895614 0.08507,2.456252 -3.196392,4.445587 -3.263866,6.902183 -0.06368,2.318578 2.719888,6.614591 2.719888,6.614591"
     />
  <g  stroke="white" stroke-width="3.5" stroke-linecap="round" style="stroke-linejoin:round"
        stroke-miterlimit="10" fill="none">
    <line y1="54" y2="54" x1="18" x2="60" />
  </g>
  
  

  <text
      style="font-size:13.9px;font-family:'Microsoft YaHei';
       text-anchor:middle;fill:black;stroke:none;stroke-width:1px;stroke-linecap:butt;stroke-linejoin:miter;stroke-opacity:1"
     x="41"
      y="96"
       >Plateau</text>
  <text
     style="font-size:13.9px;font-family:'Microsoft YaHei';
       text-anchor:middle;fill:#ffffff;stroke:none;stroke-width:1px;stroke-linecap:butt;stroke-linejoin:miter;stroke-opacity:1"
    x="39"
     y="94"
       >Plateau</text>
</svg>
