<?xml version="1.0" encoding="UTF-8" standalone="no"?>
<svg
   xmlns:dc="http://purl.org/dc/elements/1.1/"
   xmlns:cc="http://creativecommons.org/ns#"
   xmlns:rdf="http://www.w3.org/1999/02/22-rdf-syntax-ns#"
   xmlns:svg="http://www.w3.org/2000/svg"
   xmlns="http://www.w3.org/2000/svg"
   version="1.1"
   
   viewBox="0 0 77.999997 104"
   height="104"
   width="78">
  <circle cx="39" cy="39" r="36" fill="#b2b1b6"/>
  <path d="M 56.14,18.44
    l 18.8 18.8
    a36 36 0 0,1 -37.7 37.7
    l -15.9 -15.9
    l -2 -8
    h 2.15
    l -8.5 -8.5
    l 2 -8
    h 6
    v -14
    h 15
    v -5
    l 8.5 -2.5
    l 7 7
     z"
   fill="#95969a"/>
  <g  stroke="white" stroke-width="3.5"
   stroke-linecap="round" style="stroke-linejoin:round"
          stroke-miterlimit="10" fill="none">
    <circle cx="39" cy="39" r="9" />
    <polyline points="36.82,14.09 
43.34,14.37 
44.71,20.87 
49.20,22.97 
55.06,19.84 
59.47,24.66 
55.85,30.22 
57.54,34.88 
63.90,36.82 
63.62,43.34 
57.12,44.71 
55.02,49.20 
58.15,55.06 
53.33,59.47 
47.77,55.85 
43.11,57.54 
41.17,63.90 
34.65,63.62 
33.28,57.12 
28.79,55.02 
22.93,58.15 
18.52,53.33 
22.14,47.77 
20.45,43.11 
14.09,41.17 
14.37,34.65 
20.87,33.28 
22.97,28.79 
19.84,22.93 
24.66,18.52 
30.22,22.14 
34.88,20.45 
36.82,14.09 
" />
  </g>
  <text
       style="font-size:13.9px;font-family:'Microsoft YaHei';
       text-anchor:middle;fill:black;stroke:none;stroke-width:1px;stroke-linecap:butt;stroke-linejoin:miter;stroke-opacity:1"
      x="41"
       y="96"
       >Configurer</text>
  <text
     style="font-size:13.9px;font-family:'Microsoft YaHei';
       text-anchor:middle;fill:#ffffff;stroke:none;stroke-width:1px;stroke-linecap:butt;stroke-linejoin:miter;stroke-opacity:1"
    x="39"
     y="94"
       >Configurer</text>
</svg>
