<?xml version="1.0" encoding="UTF-8" standalone="no"?>

<svg
   xmlns:dc="http://purl.org/dc/elements/1.1/"
   xmlns:cc="http://creativecommons.org/ns#"
   xmlns:rdf="http://www.w3.org/1999/02/22-rdf-syntax-ns#"
   xmlns:svg="http://www.w3.org/2000/svg"
   xmlns="http://www.w3.org/2000/svg"
   width="78" height="104"
   
   viewBox="0 0 78 104"

   version="1.1"
 >
  <circle cx="39" cy="39" r="36" fill="#b1c27c"/>
  <path d="M 53.7 15.9 l 21.3 21.3
   a36 36 0 0,1 -37.65 37.8
    l -12 -12
    v-6.1
    l -9.5 -9.5
    v -15.5
    h 16.25
    l -8 -8
    v -6
     z" fill="#97a66d" />
  <g transform="translate(15,15 ),scale(0.1,0.1)">
    <path d="M121.305,30.327h242.604v60.651h30.327V30.327C394.236,13.595,380.674,0,363.909,0H121.305    c-16.731,0-30.327,13.595-30.327,30.327v60.651h30.327V30.327z" fill="#FFFFFF"/>
    <path d="M454.89,121.304H30.328c-16.731,0-30.327,13.591-30.327,30.324v151.629c0,16.764,13.595,30.327,30.327,30.327h60.651    v121.302c0,16.764,13.595,30.326,30.327,30.326h242.604c16.765,0,30.327-13.562,30.327-30.326V333.584h60.653    c16.759,0,30.322-13.563,30.322-30.327V151.628C485.212,134.895,471.648,121.304,454.89,121.304z M363.909,454.886H121.305    v-212.28h242.604V454.886z M424.562,212.282c-16.764,0-30.326-13.564-30.326-30.327c0-16.731,13.562-30.327,30.326-30.327    c16.765,0,30.327,13.595,30.327,30.327C454.89,198.717,441.327,212.282,424.562,212.282z" fill="#FFFFFF"/>
    <rect x="151.629" y="272.93" width="121.304" height="30.327" fill="#FFFFFF"/>
    <rect x="151.629" y="333.584" width="181.958" height="30.321" fill="#FFFFFF"/>
    <rect x="151.629" y="394.237" width="181.958" height="30.322" fill="#FFFFFF"/>
  </g>
  <text
       style="font-size:13.9px;font-family:'Microsoft YaHei';
       text-anchor:middle;fill:black;stroke:none;stroke-width:1px;stroke-linecap:butt;stroke-linejoin:miter;stroke-opacity:1"
      x="41"
       y="96"
  > Imprimer</text>
  <text
     style="font-size:13.9px;font-family:'Microsoft YaHei';
       text-anchor:middle;fill:#ffffff;stroke:none;stroke-width:1px;stroke-linecap:butt;stroke-linejoin:miter;stroke-opacity:1"
    x="39"
     y="94"
       >Imprimer</text>
</svg>
