<?xml version="1.0" encoding="UTF-8" standalone="no"?>
<svg
   xmlns:dc="http://purl.org/dc/elements/1.1/"
   xmlns:cc="http://creativecommons.org/ns#"
   xmlns:rdf="http://www.w3.org/1999/02/22-rdf-syntax-ns#"
   xmlns:svg="http://www.w3.org/2000/svg"
   xmlns="http://www.w3.org/2000/svg"
   width="78"
   height="104"
   viewBox="0 0 78 104"
   version="1.1"
   >
  
  <circle cx="39" cy="39" r="36" fill="#a0a2c8"/>
  <path d="M24.4,19 l5,5 h-5 l5,5 h-5 l5,5 h-5 v15 l5,5 l6,10 l10.5,10.5  A36,36 0 0,0 75,36.5       L55,16.5"  fill="#8487a8"/>
  <g transform="translate(0,-2)">
    <g  stroke="white" stroke-width="3.5" stroke-linecap="round" style="stroke-linejoin:round"
          stroke-miterlimit="10" fill="none">
    <line x1="26" x2="54" y1="30" y2="30" />
      <line x1="26" x2="54" y1="25" y2="25" />
      <line x1="26" x2="54" y1="20" y2="20" />
      <rect x="26" width="28" y="35" height="15"  />
      <polygon points="30,55 50,55 42,65 37,65" />
    </g>
  <circle cx="45" cy="42" r="4" fill="white"/>
  </g>
  <text
       style="font-size:13.9px;font-family:'Microsoft YaHei';
       text-anchor:middle;fill:black;stroke:none;stroke-width:1px;stroke-linecap:butt;stroke-linejoin:miter;stroke-opacity:1"
      x="41"
       y="96"
       >Extrudeur</text>
    <text
       style="font-size:13.9px;font-family:'Microsoft YaHei';
       text-anchor:middle;fill:#ffffff;stroke:none;stroke-width:1px;stroke-linecap:butt;stroke-linejoin:miter;stroke-opacity:1"
      x="39"
       y="94"
       >Extrudeur</text>
</svg>
