<svg height="104" 
 version="1.1"
   viewBox="0 0 78 104"
  width="78" xmlns="http://www.w3.org/2000/svg">
  <circle cx="39" cy="39" fill="#edc96b" r="36"/>
  <path d="M60.2 18.7l14.3 14.3a36 36 1 0,1 -41.6 41.5
   l-16 -16
    l12.52 -12.52
     l-10.5 -10.5
     l 13.8 -19.3
     l10 10 z" fill="#c4a757"/>
  <path  d="M200.5 124.4c8-2.8 16.3-1.5 25.3.5 5.9 1.3 12 2.6 18.8 2.6 9.2 0 17.8-2.2 26.2-7.6 13.1-8 22-22.2 24-38 2-19-5.2-37.7-19.2-50.4a74.6 74.6 0 0 0-54.2-22.8 80 80 0 0 0-55.6 23.1 113.4 113.4 0 0 0-31 75.7 30.8 30.8 0 0 1-10.4-13c-3.1-8.8-1.4-16.4.5-25.2 2.6-12 6-27-5-45A51.6 51.6 0 0 0 75.3.1 62 62 0 0 0 31 19.5a78.4 78.4 0 0 0 .8 109.9 115.2 115.2 0 0 0 75.6 31.1 27.1 27.1 0 0 1-12.8 10.3c-8 2.8-16.3 1.5-25.3-.5-5.9-1.2-12-2.7-18.8-2.7-25.7.7-47 20.1-50.1 45.7a62.6 62.6 0 0 0 19.1 51 77.6 77.6 0 0 0 109.8-1.1c19.9-19.8 31-47.3 31-75.6 4.5 3.2 8.5 7.2 10.5 12.9 3.1 8.9 1.4 16.8-.5 25.3-2.7 12-6 27 5 45a52.2 52.2 0 0 0 44.6 24.4c15.9 0 31.5-7 44.5-19.6a78.1 78.1 0 0 0-1.2-109.8 115.1 115.1 0 0 0-75.5-31.1c3-4.5 7.6-8.3 12.8-10.3zm-40.3 35.8c-7 7-17.8 7-25.2 0-6.5-7-6.5-18.3 0-25a17 17 0 0 1 25.2 0c7 7 7 18 0 25z" fill="#FFF" transform="matrix(.17 0 0 .17 14 14)"/>
  <text fill="#000" font-family="Microsoft YaHei" font-size="13.9" stroke="none" stroke-linecap="butt" stroke-linejoin="miter" stroke-opacity="1" stroke-width="1" text-anchor="middle" x="41" y="96">
    Ventilateur
  </text>
  <text fill="#fff" font-family="Microsoft YaHei" font-size="13.9" stroke="none" stroke-linecap="butt" stroke-linejoin="miter" stroke-opacity="1" stroke-width="1" text-anchor="middle" x="39" y="94">
    Ventilateur
  </text>
</svg>
