<?xml version="1.0" encoding="UTF-8" standalone="no"?>

<svg
   xmlns:dc="http://purl.org/dc/elements/1.1/"
   xmlns:cc="http://creativecommons.org/ns#"
   xmlns:rdf="http://www.w3.org/1999/02/22-rdf-syntax-ns#"
   xmlns:svg="http://www.w3.org/2000/svg"
   xmlns="http://www.w3.org/2000/svg"
   width="78"
   height="104"
   viewBox="0 0 78 104"
   version="1.1"
   >
  <circle cx="39" cy="39" r="36" fill="#b1c27c"/>


  <path
     style="fill:#97a66d;"
     d=" M10.6,59.1 l11.9,11.9 a36,36 0 0,0 52.14,-26.85 l-2.25,-2.25 h-45 Z
       "
     />

  <path
     style="fill:#97a66d;"
     d=" M57.6,17.5 l17,17 a36,36 0 0,1 -14.3,33.55 l-26.6,-26.6  Z
       "
     />  

  <g  stroke="white" stroke-width="3.5" stroke-linecap="round" style="stroke-linejoin:round"
        stroke-miterlimit="10" fill="none">
    <path d="M12,58 h45 l14,-15 h-45 Z"/>
  </g>
  <g transform="translate(41.5,-13.5) skewX(-40)">
  <g  stroke="#97a66d" stroke-width="8" stroke-linecap="round" style="stroke-linejoin:round"
            stroke-miterlimit="10" fill="#97a66d" >
    >
    <line y1="34" y2="64" x1="39" x2="39" />
    <polygon points="30,52 48,52 39,64"/>
  </g>
  <g  stroke="white" stroke-width="8" stroke-linecap="round" style="stroke-linejoin:round;"
        stroke-miterlimit="10" fill="white" >
    >
    
    <line y1="34" y2="64" x1="39" x2="39" />
  <polygon points="30,52 48,52 39,64" />
    
  </g>
</g>

  <text
      style="font-size:13.9px;font-family:'Microsoft YaHei';
       text-anchor:middle;fill:black;stroke:none;stroke-width:1px;stroke-linecap:butt;stroke-linejoin:miter;stroke-opacity:1"
     x="41"
      y="96"
       >Y-</text>
  <text
     style="font-size:13.9px;font-family:'Microsoft YaHei';
       text-anchor:middle;fill:#ffffff;stroke:none;stroke-width:1px;stroke-linecap:butt;stroke-linejoin:miter;stroke-opacity:1"
    x="39"
     y="94"
       >Y-</text>
</svg>
