<?xml version="1.0" encoding="UTF-8" standalone="no"?>

<svg
   xmlns:dc="http://purl.org/dc/elements/1.1/"
   xmlns:cc="http://creativecommons.org/ns#"
   xmlns:rdf="http://www.w3.org/1999/02/22-rdf-syntax-ns#"
   xmlns:svg="http://www.w3.org/2000/svg"
   xmlns="http://www.w3.org/2000/svg"
   width="320"
   height="240"
   viewBox="0 0 320 240"
   version="1.1"
   >
  <g transform="translate(-10,0),scale(0.9)">
  <path
     d="m 146.30838,262.33828 c -1.32926,-0.33865 -2.1875,-1.7474 -2.1875,-3.59065 0,-2.62755 -0.57946,-3.03335 -4.3315,-3.03335 -3.06246,0 -5.62604,-1.13661 -8.75,-3.87949 -2.43018,-2.13372 -4.4185,-3.25872 -4.4185,-2.5 0,2.45875 -4.91899,6.37949 -8.00376,6.37949 -1.96599,0 -4.30906,-1.61948 -6.78193,-4.6875 -2.74852,-3.41002 -3.94119,-4.17651 -4.37632,-2.8125 -0.32899,1.03125 -0.92061,2.87214 -1.31472,4.09085 -0.96658,2.98899 -4.34952,4.11902 -7.130908,2.38202 -1.44891,-0.90486 -2.55155,-0.97657 -3.03319,-0.19727 -0.41618,0.67342 -2.76587,1.2244 -5.22149,1.2244 -4.925,0 -4.81839,0.61606 -2.16322,-12.5 l 0.88566,-4.375 -3.18255,2.9153 c -1.75041,1.60343 -3.80828,5.4003 -4.57306,8.4375 -1.31422,5.21925 -1.63168,5.5222 -5.78674,5.5222 -5.04571,0 -6.23658,-1.82814 -4.37699,-6.71923 0.97272,-2.55846 0.83267,-4.50162 -0.56569,-7.84836 -2.24173,-5.36522 -1.6199,-6.68241 3.1547,-6.68241 2.35293,0 4.10349,0.88052 4.97021,2.5 1.70906,3.1934 4.00252,3.17406 6.92787,-0.0584 1.81148,-2.00168 3.55376,-2.4777 8.00623,-2.1875 6.213498,0.40497 5.995968,-0.0764 4.68607,10.37091 l -0.78363,6.25 3.096068,-7.43509 c 4.45626,-10.70155 8.31715,-12.26139 14.08353,-5.68991 1.80981,2.0625 3.95403,3.75 4.76493,3.75 0.8109,0 2.06263,-1.6875 2.78163,-3.75 0.71899,-2.0625 2.18026,-3.75 3.24727,-3.75 1.32225,0 1.94003,1.19414 1.94003,3.75 0,4.19389 1.34576,4.77267 3.90945,1.68137 2.76474,-3.33375 9.24509,-5.43137 16.77956,-5.43137 9.24793,0 8.79901,2.96136 -0.53129,3.50479 -5.64477,0.32876 -6.68109,0.80148 -7.71425,3.51887 -1.87712,4.93723 -1.41283,7.73825 1.43236,8.64128 3.89324,1.23566 5.97746,-1.43821 2.93198,-3.7615 -2.10521,-1.60602 -2.18032,-2.02488 -0.55781,-3.11054 2.64164,-1.76759 9.11156,-1.59315 11.72256,0.31606 2.03833,1.49046 2.06734,2.18483 0.39393,9.4283 -0.99354,4.30065 -2.01683,8.00674 -2.27397,8.23576 -1.08167,0.9634 -5.62833,1.61733 -7.65502,1.10097 z M 27.228522,254.43619 c -0.9085,-1.46999 2.57333,-12.98667 5.1878,-17.15941 1.5747,-2.51327 2.76764,-2.8125 11.21254,-2.8125 7.00128,0 9.31705,0.40492 8.93597,1.5625 -0.28748,0.87328 -3.09033,1.73055 -6.35416,1.94349 -4.08345,0.2664 -5.83979,0.92431 -5.83979,2.1875 0,1.25841 1.44115,1.80651 4.75,1.80651 2.6125,0 5.40409,0.6541 6.20355,1.45355 1.4172,1.4172 1.77526,0.85041 4.6693,-7.39105 0.30178,-0.85938 2.28177,-1.5625 4.39999,-1.5625 l 3.8513,0 -0.85444,7.55231 c -0.74053,6.54535 -0.54048,7.7841 1.50042,9.29085 3.63736,2.68535 0.60154,4.62302 -6.53323,4.16995 -5.90896,-0.37522 -6.12505,-0.52507 -6.50825,-4.51302 l -0.39635,-4.12493 -6.40483,0.37493 c -6.0636,0.35493 -6.46063,0.59136 -7.45189,4.43741 -0.92401,3.5851 -1.54831,4.0625 -5.31254,4.0625 -2.34602,0 -4.62095,-0.57514 -5.05539,-1.27809 z m 146.892358,-1.6042 c 0,-1.58525 1.17664,-6.3665 2.61475,-10.625 l 2.61476,-7.74271 8.44871,0 c 4.6468,0 10.27178,0.63553 12.49995,1.41226 3.96593,1.38254 4.41089,2.84051 2.43019,7.96274 -0.26585,0.6875 0.0791,1.27433 0.76664,1.30405 0.6875,0.0297 1.91585,-1.88279 2.72967,-4.25004 1.97534,-5.74588 3.30774,-6.38745 13.31199,-6.40987 6.28044,-0.0141 8.40568,0.3945 8.02794,1.54336 -0.28255,0.85937 -3.0013,1.84375 -6.04166,2.1875 -6.65495,0.75243 -6.80779,2.88356 -0.26894,3.75 3.11327,0.41252 4.85361,1.3443 5.11925,2.74084 0.32539,1.71067 -0.74939,2.18938 -5.6129,2.5 -7.65056,0.4886 -7.84479,2.76528 -0.27785,3.25698 5.47976,0.35608 5.9513,0.11188 10.49756,-5.43622 6.81309,-8.31448 9.4934,-10.5616 12.59759,-10.5616 3.44734,0 4.87925,1.7609 6.86111,8.4375 0.86733,2.92187 2.02874,5.3125 2.58091,5.3125 0.55219,0 1.64314,-2.39063 2.42437,-5.3125 0.78121,-2.92188 1.99677,-6.01563 2.70124,-6.875 1.54516,-1.88495 16.82253,-2.12879 21.51835,-0.34344 4.18855,1.59249 4.13849,5.36628 -0.1155,8.71253 l -3.32194,2.61302 2.69694,2.87076 c 4.05865,4.32023 3.40068,5.83463 -2.535,5.83463 -3.58985,0 -6.10642,-0.82153 -8.01814,-2.6175 l -2.7862,-2.6175 -1.40084,2.6175 c -1.23716,2.31166 -2.53494,2.6175 -11.10686,2.6175 -5.46255,0 -10.31445,-0.60843 -11.09765,-1.39163 -0.88195,-0.88195 -3.377,-1.07557 -6.8125,-0.52867 -2.98149,0.47462 -10.67633,1.14069 -17.09965,1.48012 -9.51799,0.50299 -12.0838,0.25065 -13.86783,-1.36387 -1.972,-1.78464 -2.63817,-1.79341 -6.71857,-0.0885 -2.68458,1.12165 -8.36468,1.89255 -13.94474,1.89255 -8.99808,0 -9.41515,-0.12769 -9.41515,-2.88229 z m 16.25,-4.69148 c 0,-0.64693 -0.84375,-1.17623 -1.875,-1.17623 -1.93301,0 -2.48338,1.47495 -1.07565,2.88269 0.99866,0.99866 2.95065,-0.13024 2.95065,-1.70647 z m 50,-3.125 c 0,-2.06259 -1.97555,-2.41107 -3.125,-0.55123 -1.01939,1.6494 0.47526,3.99009 1.96137,3.07161 0.63999,-0.39553 1.16363,-1.52971 1.16363,-2.52038 z m -47.5,-4.92623 c 0,-1.04166 -1.11111,-1.875 -2.5,-1.875 -1.38889,0 -2.5,0.83334 -2.5,1.875 0,1.04166 1.11111,1.875 2.5,1.875 1.38889,0 2.5,-0.83334 2.5,-1.875 z m 79.0625,0 c -0.46131,-1.84523 -4.38938,-1.51937 -5.03506,0.41769 -0.38112,1.14332 0.37219,1.53635 2.39583,1.25 1.62345,-0.22973 2.8111,-0.98019 2.63923,-1.66769 z m -121.66906,-29.6875 c -0.0586,-2.23438 -0.0179,-7.01563 0.0906,-10.625 l 0.19721,-6.5625 -9.80325,0 c -5.88216,0 -13.29301,0.97171 -18.52813,2.4294 -11.12321,3.09722 -27.100898,9.64917 -28.724868,11.77919 -0.6875,0.90174 -2.79688,2.01119 -4.6875,2.46546 -1.89063,0.45428 -4.84375,1.17278 -6.5625,1.59668 -2.36244,0.58265 -3.125,0.27762 -3.125,-1.25 0,-1.1114 0.75054,-2.02073 1.66786,-2.02073 0.91732,0 7.24545,-2.77297 14.0625,-6.16218 10.553448,-5.2468 11.808198,-6.17521 8.446808,-6.25 -6.931408,-0.1542 -34.212378,3.73437 -52.927168,7.54412 -9.96875,2.02932 -19.8125,3.98601 -21.875,4.34818 l -3.75,0.65849 3.64908,-2.09509 c 10.30139,-5.91445 40.07805,-13.38691 69.47592,-17.43501 20.109618,-2.7691 71.530868,-3.83601 93.916848,-1.94865 15.07576,1.27105 43.0646,5.426 56.39565,8.37195 4.38055,0.96803 4.33808,-0.42326 -0.17799,-5.82902 -3.48068,-4.16642 -3.70575,-4.24623 -6.03594,-2.14029 -3.07874,2.78246 -9.98906,2.80809 -16.88577,0.0626 -6.68298,-2.66038 -23.2659,-12.186 -37.19403,-21.3651 l -10.64377,-7.01458 -10.44331,0.3552 c -5.75498,0.19573 -16.26908,-0.60038 -23.42024,-1.77334 l -12.97691,-2.12853 -7.34814,6.80307 c -7.56776,7.00642 -25.731238,18.52459 -38.250278,24.256 -6.50613,2.9786 -7.54714,3.12253 -12.33351,1.7053 -5.30543,-1.57094 -8.17669,-1.72567 -18.47495,-0.99558 -6.52512,0.4626 -12.37766,-2.03473 -12.37766,-5.28164 0,-1.1779 2.80132,-5.72347 6.22517,-10.10127 8.17457,-10.45218 8.23447,-12.38452 0.33733,-10.88275 -12.93772,2.46029 -30.3125,-3.50418 -30.3125,-10.40579 0,-1.36493 3.02435,-5.6743 6.72079,-9.57639 3.69644,-3.90209 7.90715,-9.44716 9.35714,-12.32239 1.44999,-2.87522 3.19159,-5.57085 3.87024,-5.99027 0.67864,-0.41943 1.864,-3.12946 2.63414,-6.02231 2.22653,-8.36342 7.03811,-12.0143 10.83281,-8.2196 1.05349,1.05349 3.57733,-0.3796 9.87632,-5.60801 5.01396,-4.161804 11.03247,-7.864854 14.77238,-9.089104 10.05385,-3.29112 20.11749,-8.7889 22.36398,-12.21749 3.101698,-4.73378 2.540758,-9.0474 -2.3028,-17.7085 -6.03037,-10.78332 -5.88035,-15.21476 0.75892,-22.417529 9.143278,-9.919287 19.017478,-13.286745 56.756498,-19.356029 26.77507,-4.306033 35.07208,-6.383075 42.98717,-10.761242 3.02642,-1.6740411 5.80047,-2.7458251 6.16456,-2.3817401 1.54375,1.5437561 -8.58578,9.8728891 -16.66715,13.7047611 -4.8125,2.281903 -19.62649,7.028754 -32.91998,10.548559 -26.64641,7.055351 -35.98548,10.84175 -40.77232,16.53058 -2.8899,3.43446 -3.1827,4.80859 -3.1827,14.93653 0,7.06143 0.4888,11.15409 1.33217,11.15409 3.46556,0 5.89002,-2.76084 6.66157,-7.58581 2.36569,-14.79425 12.6177,-22.72174 35.29612,-27.293126 13.79671,-2.781064 30.774,-4.407572 66.71014,-6.391159 39.90074,-2.202424 52.03819,-4.377879 63.31711,-11.34864 2.37291,-1.466539 4.70668,-2.26679 5.18614,-1.778337 1.45577,1.483071 -12.07339,13.020292 -19.90316,16.972747 -9.70628,4.899711 -17.85837,6.677385 -54.62637,11.912015 -37.84508,5.38797 -51.04066,8.19024 -59.02186,12.53416 -5.4304,2.95559 -10.97572,8.62096 -9.69342,9.90326 0.25201,0.25202 4.3736,-0.96301 9.15908,-2.70005 17.222,-6.25125 24.93357,-7.13989 54.95748,-6.333 15.125,0.40648 34.4352,0.24459 42.91155,-0.35976 13.89948,-0.99101 16.33961,-1.53955 24.87054,-5.59087 5.20242,-2.47062 9.7028,-4.24821 10.00081,-3.95019 1.14855,1.14855 -4.13196,7.46221 -10.80723,12.9217 -8.50753,6.95806 -19.56105,12.35833 -29.16317,14.24791 -3.95313,0.77793 -7.1875,1.67464 -7.1875,1.99267 0,0.31806 3.10579,4.01027 6.90174,8.20494 9.50821,10.506924 13.64273,19.184754 12.47226,26.177724 -0.49148,2.93635 -0.90315,8.91062 -0.91483,13.27619 -0.0184,6.88428 0.7441,9.53777 5.7472,20 6.84652,14.31707 8.71002,22.65082 7.03725,31.47126 -1.54331,8.13784 -3.0639,10.83975 -7.68045,13.64724 l -3.77727,2.2971 6.66955,2.19105 c 8.89416,2.92187 20.31771,7.97447 19.61606,8.67612 -0.30952,0.30952 -3.63036,-0.25685 -7.37963,-1.25861 -19.64653,-5.24933 -68.55403,-12.72835 -76.1937,-11.65169 -2.47457,0.34874 -0.56895,1.67325 9.17573,6.37765 6.7644,3.26563 13.7019,5.9375 15.41666,5.9375 1.93865,0 2.92079,0.59093 2.59693,1.5625 -0.28646,0.85938 -1.17709,1.50625 -1.97916,1.4375 -0.80209,-0.0688 -3.34495,-0.20937 -5.65081,-0.3125 -2.51258,-0.11237 -5.51154,-1.40997 -7.48443,-3.23839 -2.04106,-1.89158 -9.91811,-5.21646 -20.72986,-8.75 -14.4127,-4.7104 -19.06555,-5.69911 -26.81995,-5.69911 l -9.38203,0 0.2716,10.625 0.2716,10.625 -3.46722,0 c -3.05657,0 -3.47987,-0.48119 -3.5738,-4.0625 z m 113.98965,-22.19406 c 3.1936,-11.47741 0.0763,-26.29266 -9.99317,-47.49344 -4.5328,-9.54361 -4.84152,-10.78001 -3.03326,-12.14801 1.84595,-1.39652 1.83108,-1.99977 -0.17915,-7.26344 -2.35108,-6.15625 -1.9186,-8.17467 1.19749,-5.58854 2.93592,2.4366 3.34477,0.93721 1.31395,-4.81874 -2.72615,-7.72672 -8.63296,-15.637354 -16.4016,-21.965654 -6.85273,-5.58217 -8.46618,-6.14387 -21.78735,-7.58487 -3.78125,-0.40904 -14.41968,-2.12453 -23.64096,-3.81222 -9.22128,-1.68768 -21.44758,-3.06852 -27.16956,-3.06852 -10.59104,0 -21.57354,2.05832 -23.23284,4.35427 -0.5051,0.6989 -0.92698,5.22967 -0.9375,10.06837 -0.0246,11.335634 -3.48895,18.736424 -10.64414,22.739154 -8.46616,4.73611 -10.68731,3.11923 -5,-3.63975 1.71875,-2.04262 3.11227,-5.21757 3.09673,-7.05545 -0.0436,-5.150644 -7.78139,-23.261044 -10.12827,-23.705284 -1.11735,-0.2115 -8.9527,3.58068 -17.4119,8.42706 -8.459198,4.8464 -15.982498,8.81208 -16.718458,8.81262 -4.1511,0.002 -16.80388,7.760224 -21.01457,12.883624 -2.57206,3.12958 -8.289,8.02641 -12.70432,10.88186 -7.01943,4.53954 -8.52558,6.23853 -11.99003,13.52512 -2.1792,4.58336 -5.10065,9.55881 -6.49213,11.05655 -2.0496,2.20611 -2.30728,3.39277 -1.35718,6.25 1.16515,3.50391 1.25031,3.52916 13.09632,3.88265 19.49741,0.58181 31.90097,-5.59603 30.76536,-15.3233 -0.41592,-3.56271 -0.1218,-4.41865 1.41678,-4.12293 1.21218,0.233 2.2082,2.24555 2.65109,5.35682 0.39018,2.74098 1.93496,6.95236 3.43283,9.35861 1.49787,2.40625 2.72001,5.78125 2.71587,7.5 -0.01,4.14946 -5.29968,15.33667 -10.1433,21.45224 -2.14016,2.70217 -3.57964,5.22461 -3.19884,5.6054 0.38079,0.3808 2.69018,0.69236 5.13197,0.69236 7.33477,0 34.962728,-16.4614 48.573048,-28.941 l 7.22099,-6.62109 7.15401,1.32628 c 19.76028,3.66331 37.45755,2.68781 52.25011,-2.88009 l 8.02745,-3.02153 12.81322,6.39229 c 11.26707,5.62095 14.32703,7.9144 25.35841,19.00621 6.89985,6.93767 14.68586,15.03585 17.30224,17.99599 5.19918,5.88228 8.30456,6.36006 9.66066,1.48638 z M 43.183382,138.63643 c -0.85938,-0.34676 -1.5625,-1.70861 -1.5625,-3.02631 0,-1.77618 0.88909,-2.40025 3.4375,-2.4129 1.89062,-0.01 4.70312,-0.35625 6.25,-0.7708 3.77535,-1.01175 3.79875,2.4553 0.0344,5.09199 -2.78888,1.9534 -5.2525,2.29097 -8.15937,1.11802 z M 148.62466,111.448 c -2.67917,-0.99849 -5.69728,-2.6415 -6.70692,-3.65114 -3.08316,-3.08316 3.5862,-6.50868 12.15269,-6.24186 17.01361,0.52993 29.42545,2.2627 29.42545,4.10799 0,4.61395 -26.30438,8.97775 -34.87122,5.78501 z m 24.24622,-12.693444 c -5.84375,-1.02223 -13.4375,-2.26512 -16.875,-2.76195 -4.25298,-0.61468 -6.25,-1.48992 -6.25,-2.73918 0,-1.04028 2.70852,-2.90664 6.25,-4.30668 5.34281,-2.11217 8.51795,-2.40189 21.875,-1.99597 8.59375,0.26116 21.79839,0.44447 29.34365,0.40736 l 13.71865,-0.0675 -4.31694,3.60392 c -9.98896,8.33917 -25.28997,11.088394 -43.74536,7.86 z m 62.99436,84.671104 c 0.9941,-1.60849 -7.31981,-13.21964 -12.61875,-17.62327 -5.66341,-4.70651 -23.5618,-13.92957 -25.72567,-13.25646 -11.90665,3.70373 -14.56135,4.80043 -13.96312,5.76839 0.38843,0.62847 6.72092,4.73485 14.0722,9.12527 7.35129,4.39043 16.70789,10.01708 20.79244,12.50364 7.18776,4.37574 15.82506,6.10014 17.4429,3.48243 z m -175.132068,-4.0989 c 11.72547,-5.87648 17.96174,-15.42948 17.27607,-26.46421 -0.0761,-1.22471 -0.90728,-2.52179 -1.84708,-2.88243 -2.78445,-1.06849 -13.16818,6.76984 -15.10315,11.40087 -0.96554,2.31087 -4.04662,7.57534 -6.84683,11.69884 -2.80022,4.1235 -5.0913,7.80939 -5.0913,8.19086 0,1.62277 6.75036,0.49274 11.61229,-1.94393 z"
    
    fill="#afafaf" />

  </g>


  <g transform="translate(155,-120) rotate(-90,160,235)" >
  <text  fill="#afafaf" x="160" y="210" font-size="50" text-anchor="middle" >P905X</text>
  <text fill="#afafaf" x="160" y="235" text-anchor="middle">
  Custom design by Jeremy PETIT
   </text>
  </g>
</svg>